<?xml version="1.0" encoding="utf-8"?>
<!-- Generator: Adobe Illustrator 21.0.2, SVG Export Plug-In . SVG Version: 6.00 Build 0)  -->
<svg version="1.1" id="Layer_1" xmlns="http://www.w3.org/2000/svg" xmlns:xlink="http://www.w3.org/1999/xlink" x="0px" y="0px"
	 viewBox="0 0 1000 1000" style="enable-background:new 0 0 1000 1000;" xml:space="preserve">
<style type="text/css">
	.st0{fill:#FFFFFF;}
</style>
<path class="st0" d="M614.2,511.3c-0.5,0-0.9,0.1-1.4,0.1c-0.7-1.5-1.4-2.9-1.9-4.4c-6.9-17.3-13.8-34.6-20.7-51.9
	c-6-15-11.8-30-17.9-45c-3.4-8.4-10.8-11.9-18.4-9.2c-4.9,1.8-7.5,5.7-9.2,10.5c-11.5,31.4-23.2,62.8-34.8,94.1c-0.8,2-1.8,4-3.1,7
	c-1.2-2.7-2-4.2-2.6-5.7c-12.8-31.8-25.6-63.6-38.3-95.4c-2.4-6-6-10.4-12.7-11.2c-6.9-0.9-12.5,2.8-15.2,10.3
	c-6.5,17.6-13,35.3-19.2,53c-1.4,4.1-3.4,5.6-7.9,5.6c-24.7-0.2-49.3-0.1-74-0.1c-7.4,0-12.7,3.6-14.7,9.8
	c-3.1,9.5,3.7,18.5,14.2,18.5c29.5,0.1,59,0,88.5,0c8.4,0,12.5-2.8,15.5-10.7c3.2-8.6,6.3-17.2,9.4-25.8c0.6-1.6,1.4-3.1,2.6-5.8
	c1.3,2.9,2.1,4.5,2.7,6.2c7.3,18.1,14.6,36.1,21.8,54.2c5.7,14.2,11.3,28.4,17.2,42.6c2.4,5.9,7,9.3,13.6,9.1
	c6.6-0.1,10.8-3.7,13.3-9.7c0.4-1.1,0.8-2.2,1.2-3.3c11.2-30.4,22.5-60.9,33.7-91.3c0.8-2.3,1.8-4.5,3.3-7.9
	c1.3,2.8,2.1,4.3,2.8,5.9c3,7.4,5.9,14.8,8.8,22.3c9.7,24.6,19.4,49.2,29.1,73.8c3.1,7.9,8,11.1,15.7,10.3
	c7.2-0.7,10.3-5.8,12.6-11.9c11.9-31.6,23.9-63.2,35.8-94.8c0.7-1.7,1.5-3.3,2.8-6c1.2,2.7,1.9,4.1,2.5,5.6
	c3.8,9.2,7.5,18.5,11.3,27.7c2.4,5.7,6.5,9.5,12.8,9.5c30.7,0.3,61.3,0.4,92,0.4c6.4,0,11.1-3.3,13.5-9.4
	c3.9-9.9-3.2-19.7-14.3-19.7c-24.5,0-49,0-73.5,0.3c-5.7,0.1-8.3-2-10.2-7.1c-6.6-16.9-13.6-33.7-20.4-50.4
	c-3.3-8-7.9-11.6-14.6-11.4c-7.8,0.3-11.7,5.1-14.2,12c-8.5,23.1-17.3,46.1-26,69.2C621.9,491.2,618,501.3,614.2,511.3z"/>
<path class="st0" d="M279.8,483.2c2.1-1.7,3.9-3,5.4-4.4c19.9-17.5,39.7-35,59.6-52.6c7.2-6.4,8.3-14.7,2.9-21.2
	c-5.3-6.4-14.3-6.8-21.3-0.6c-25.7,22.5-51.3,45.1-76.8,67.8c-7.7,6.9-7.5,15.9,0.2,23c4.3,3.9,8.7,7.7,13.1,11.6
	c20.9,18.4,41.8,36.8,62.6,55.2c4.1,3.6,8.5,6,14.1,4.8c5.7-1.2,9.5-4.7,11-10.4c1.6-6.1-0.6-11.1-5.3-15.2
	c-19.3-16.9-38.5-33.9-57.8-50.9C285.2,488.3,283,486.1,279.8,483.2z"/>
<path class="st0" d="M209,483.3c0,23.7,0,47.3,0,71c0,7.7,4.9,12.7,12.6,12.9c9.3,0.2,15.1-6.2,15.1-17.1c0-44.3,0-88.6,0-132.9
	c0-2.2-0.1-4.4-0.6-6.4c-1.6-7-8.5-11.5-15.9-10.6c-7.1,0.9-11.1,5.6-11.1,13.3C209,436.6,209,459.9,209,483.3z"/>
<path d="M614.2,511.3c3.9-10.1,7.7-20.1,11.6-30.2c8.7-23,17.4-46.1,26-69.2c2.5-6.8,6.4-11.7,14.2-12c6.8-0.2,11.4,3.4,14.6,11.4
	c6.9,16.8,13.9,33.5,20.4,50.4c2,5.1,4.6,7.2,10.2,7.1c24.5-0.4,49-0.3,73.5-0.3c11.1,0,18.2,9.8,14.3,19.7c-2.4,6-7.1,9.4-13.5,9.4
	c-30.7,0-61.3-0.2-92-0.4c-6.4-0.1-10.5-3.8-12.8-9.5c-3.8-9.2-7.5-18.5-11.3-27.7c-0.6-1.5-1.3-3-2.5-5.6c-1.3,2.7-2.1,4.3-2.8,6
	c-12,31.6-24,63.2-35.8,94.8c-2.3,6.1-5.5,11.2-12.6,11.9c-7.7,0.8-12.6-2.4-15.7-10.3c-9.8-24.6-19.4-49.2-29.1-73.8
	c-2.9-7.4-5.9-14.9-8.8-22.3c-0.6-1.6-1.5-3.1-2.8-5.9c-1.4,3.5-2.4,5.7-3.3,7.9c-11.3,30.4-22.5,60.9-33.7,91.3
	c-0.4,1.1-0.8,2.2-1.2,3.3c-2.4,5.9-6.7,9.5-13.3,9.7c-6.6,0.1-11.1-3.2-13.6-9.1c-5.8-14.2-11.5-28.4-17.2-42.6
	c-7.3-18.1-14.5-36.1-21.8-54.2c-0.7-1.7-1.4-3.3-2.7-6.2c-1.2,2.7-2,4.2-2.6,5.8c-3.2,8.6-6.2,17.2-9.4,25.8
	c-3,7.9-7.1,10.7-15.5,10.7c-29.5,0-59,0.1-88.5,0c-10.5,0-17.3-9-14.2-18.5c2-6.2,7.3-9.8,14.7-9.8c24.7,0,49.3-0.1,74,0.1
	c4.4,0,6.4-1.5,7.9-5.6c6.2-17.8,12.7-35.4,19.2-53c2.8-7.5,8.3-11.1,15.2-10.3c6.8,0.8,10.3,5.3,12.7,11.2
	c12.7,31.8,25.5,63.6,38.3,95.4c0.6,1.5,1.3,3,2.6,5.7c1.4-3.1,2.4-5,3.1-7c11.6-31.4,23.2-62.7,34.8-94.1c1.7-4.8,4.3-8.7,9.2-10.5
	c7.6-2.8,15,0.8,18.4,9.2c6.1,15,11.9,30,17.9,45c6.9,17.3,13.8,34.6,20.7,51.9c0.6,1.5,1.3,2.9,1.9,4.4
	C613.2,511.4,613.7,511.4,614.2,511.3z"/>
<path d="M279.8,483.2c3.2,2.9,5.4,5.1,7.7,7.1c19.3,17,38.5,33.9,57.8,50.9c4.6,4.1,6.8,9,5.3,15.2c-1.5,5.7-5.3,9.2-11,10.4
	c-5.6,1.2-10-1.2-14.1-4.8c-20.8-18.4-41.7-36.8-62.6-55.2c-4.4-3.9-8.8-7.6-13.1-11.6c-7.7-7.1-8-16.1-0.2-23
	c25.5-22.7,51.1-45.3,76.8-67.8c7.1-6.2,16-5.8,21.3,0.6c5.4,6.5,4.3,14.8-2.9,21.2c-19.8,17.6-39.7,35.1-59.6,52.6
	C283.7,480.2,281.9,481.5,279.8,483.2z"/>
<path d="M209,483.3c0-23.3,0-46.6,0-70c0-7.7,4-12.4,11.1-13.3c7.4-0.9,14.3,3.6,15.9,10.6c0.5,2.1,0.6,4.3,0.6,6.4
	c0,44.3,0,88.6,0,132.9c0,10.9-5.7,17.3-15.1,17.1c-7.7-0.2-12.6-5.1-12.6-12.9C209,530.6,209,506.9,209,483.3z"/>
</svg>
